<?xml version="1.0" encoding="UTF-8" standalone="no"?>
<!-- Created with Inkscape (http://www.inkscape.org/) -->

<svg
   width="1920"
   height="1080"
   viewBox="0 0 508 285.75"
   version="1.1"
   id="svg5"
   sodipodi:docname="drawing.svg"
   inkscape:version="1.2.2 (732a01da63, 2022-12-09)"
   xmlns:inkscape="http://www.inkscape.org/namespaces/inkscape"
   xmlns:sodipodi="http://sodipodi.sourceforge.net/DTD/sodipodi-0.dtd"
   xmlns:xlink="http://www.w3.org/1999/xlink"
   xmlns="http://www.w3.org/2000/svg"
   xmlns:svg="http://www.w3.org/2000/svg">
  <sodipodi:namedview
     id="namedview7"
     pagecolor="#505050"
     bordercolor="#eeeeee"
     borderopacity="1"
     inkscape:showpageshadow="0"
     inkscape:pageopacity="0"
     inkscape:pagecheckerboard="0"
     inkscape:deskcolor="#505050"
     inkscape:document-units="mm"
     showgrid="false"
     inkscape:zoom="0.5"
     inkscape:cx="931"
     inkscape:cy="300"
     inkscape:window-width="1920"
     inkscape:window-height="1027"
     inkscape:window-x="1912"
     inkscape:window-y="-8"
     inkscape:window-maximized="1"
     inkscape:current-layer="layer1" />
  <defs
     id="defs2">
    <linearGradient
       inkscape:collect="always"
       id="linearGradient3045">
      <stop
         style="stop-color:#f3ff22;stop-opacity:0.94339621;"
         offset="0"
         id="stop3041" />
      <stop
         style="stop-color:#c0c94b;stop-opacity:0.08805034;"
         offset="0.41157559"
         id="stop14069" />
      <stop
         style="stop-color:#ffffff;stop-opacity:0;"
         offset="0.74919623"
         id="stop3043" />
    </linearGradient>
    <radialGradient
       inkscape:collect="always"
       xlink:href="#linearGradient3045"
       id="radialGradient3051"
       cx="250.58157"
       cy="3.4703324"
       fx="250.58157"
       fy="3.4703324"
       r="315.39285"
       gradientTransform="matrix(1,0,0,0.98907727,0,0.03790551)"
       gradientUnits="userSpaceOnUse" />
  </defs>
  <g
     inkscape:label="Layer 1"
     inkscape:groupmode="layer"
     id="layer1">
    <path
       sodipodi:type="spiral"
       style="fill:none;fill-rule:evenodd;stroke:url(#radialGradient3051);stroke-width:4.89479167;stroke-miterlimit:4;stroke-dasharray:4.89479167,15.1200045;stroke-dashoffset:0;stroke-opacity:1"
       id="path112"
       sodipodi:cx="254"
       sodipodi:cy="0"
       sodipodi:expansion="0.89999998"
       sodipodi:revolution="18.6"
       sodipodi:radius="254"
       sodipodi:argument="-15.707963"
       sodipodi:t0="0"
       d="m 254,0 c -3.285,-9.1369693e-7 -1.75848,-4.2455969 0,-5.2531295 4.08477,-2.3404001 8.68036,1.3354709 9.80269,5.2531322265371 C 265.70462,6.6390228 260.34915,12.907161 254,14.119757 245.02352,15.834135 236.94876,8.6653228 235.70754,-5.0878982e-6 234.09934,-11.227423 243.08784,-21.110554 254.00001,-22.360994 267.42294,-23.899145 279.09666,-13.108205 280.3484,7.3285918e-6 281.83586,15.576684 269.26395,29.020207 253.99999,30.269575 236.30341,31.718055 221.11026,17.386325 219.86507,-9.494353e-6 218.44786,-19.787958 234.51974,-36.712 254.00001,-37.952147 275.85465,-39.34345 294.4924,-21.549457 295.72709,1.1606048e-5 297.09643,23.89959 277.59679,44.235322 253.99999,45.464404 228.0749,46.814759 206.05563,25.624562 204.83215,-1.3675634e-5 203.49845,-27.933053 226.36535,-51.622569 254.00001,-52.840522 283.92501,-54.159418 309.27246,-29.628603 310.48502,1.5710846e-5 311.79063,31.902274 285.60775,58.896244 253.99998,60.103563 220.13403,61.397137 191.5042,33.573217 190.30196,-1.7717087e-5 189.01937,-35.817049 218.47403,-66.072769 254.00002,-67.270106 291.75636,-68.542612 323.62861,-37.46687 324.82121,1.9698337e-5 326.0844,39.684647 293.39665,73.164605 253.99998,74.352628 212.39744,75.607169 177.3181,41.315985 176.1345,-2.1657651e-5 174.88802,-43.510675 210.77454,-80.181505 254.00002,-81.360844 299.40953,-82.599771 337.66436,-45.125598 338.83958,2.3597438e-5 340.07141,47.299586 301.01689,87.131292 253.99998,88.302527 204.81872,89.527678 163.41693,48.899757 162.24955,-2.5519645e-5 161.03072,-51.055 203.2254,-94.020375 254.00003,-95.184029 306.9211,-96.396876 351.44386,-52.641787 352.6039,2.7425882e-5 353.81106,54.779917 308.50164,100.85409 253.99997,102.01064 197.36826,103.21238 149.74837,56.354462 148.59522,-2.9317498e-5 147.39864,-58.476861 195.79946,-107.63696 254.00003,-108.78682 314.31553,-109.97846 365.01055,-60.040133 366.15721,3.1195638e-5 367.34413,62.147985 315.87348,114.37283 253.99997,115.51639 190.02555,116.69878 136.2758,63.700815 135.13526,-3.3061291e-5 133.95722,-65.795145 188.47766,-121.06504 254.00003,-122.20265 321.61025,-123.3765 378.39571,-67.338256 379.53045,3.4915311e-5 380.70028,69.419959 323.14874,127.71652 253.99996,128.84848 182.77556,130.01442 122.9722,70.95398 121.84295,-3.6758453e-5 120.68076,-73.023846 181.24587,-134.32983 254.00004,-135.45643 328.81834,-136.615 391.62288,-74.549337 392.74691,3.8591373e-5 393.90197,76.608065 330.33976,140.90723 253.99996,142.02874 175.60685,143.1804 109.81689,78.125519 108.69784,-4.0414653e-5 107.54946,-80.173735 174.09324,-147.45077 254.00004,-148.56741 335.94993,-149.7126 404.71041,-81.683597 405.8247,4.2228836e-5 406.9668,83.721862 337.45615,153.96225 253.99996,155.07425 168.51037,156.21334 96.793506,85.22453 95.683755,-4.4034394e-5 94.547587,-87.253351 167.01116,-160.44333 254.00004,-161.55088 343.01312,-162.68421 417.67294,-88.749184 418.77834,4.5831761e-5 419.9089,90.769022 344.50566,166.89549 253.99995,167.99879 161.47884,169.12665 83.88884,92.258349 82.787612,-4.7621325e-5 81.662378,-94.269621 159.99265,-173.3201 254.00005,-174.4193 350.01448,-175.54197 430.52246,-95.75274 431.61968,4.9403448e-5 432.73985,97.755831 351.4946,179.71838 253.99995,180.81366 154.50626,181.93139 71.091984,99.233014 69.99862,-5.1178451e-5 68.883273,-101.22828 153.03195,-186.09149 254.00005,-187.18298 356.95952,-188.296 443.26893,-102.69978 444.35858,5.2946638e-5 445.46932,104.68753 358.42826,192.44046 253.99995,193.5283 147.58762,194.63682 58.393799,106.15358 57.307729,-5.4708285e-5 56.201398,-108.13413 146.12422,-198.76627 254.00006,-199.85059 363.85284,-200.95479 455.92076,-109.59494 457.00338,5.6463649e-5 458.10549,111.56856 365.3111,205.0698 253.99994,206.15073 140.71864,207.25079 45.786517,113.02433 44.707245,-5.8212968e-5 43.609192,-114.99128 139.26532,-211.3519 254.00006,-212.42955 370.69838,-213.52563 468.48516,-116.4422 469.5612,5.9956467e-5 470.65535,118.40272 372.14694,217.61334 253.99994,218.6878 133.89567,219.78007 33.263461,119.84895 32.19055,-6.1694345e-5 31.100145,-121.80326 132.45172,-223.85484 254.00006,-224.92622 377.49957,-226.0148 480.96832,-123.24498 482.0382,6.3426799e-5 483.12499,125.19329 378.93908,230.07708 253.99994,231.14547 127.11553,232.2305 20.81883,126.63064 19.751894,-6.515401e-5 18.668592,-128.57315 125.68032,-236.28068 254.00007,-237.34618 384.25937,-238.42778 493.37569,-130.00627 494.43977,6.6876146e-5 495.5197,131.94316 385.69042,242.46626 253.99993,243.52894 120.37543,244.60723 8.4475404,133.37218 7.3862349,-6.8593366e-5 6.309561,-135.30364 118.94841,-248.63436 254.00007,-249.69431 390.98039,-250.76939 505.71202,-136.72868 506.77063,7.0305826e-5 507.18276,53.229939 490.44292,105.99776 459.48992,149.298"
       transform="translate(-3.0496732,-14.74134)" />
  </g>
</svg>
